<svg width="624" height="124" viewBox="0 0 624 124" fill="none" xmlns="http://www.w3.org/2000/svg">
<g clip-path="url(#clip0_428_3413)">
<path d="M49.848 91.274V99.626H1.08V32.426H48.504V40.778H10.68V61.418H44.376V69.578H10.68V91.274H49.848ZM91.2165 48.266C97.6805 48.266 102.801 50.154 106.577 53.93C110.417 57.642 112.337 63.114 112.337 70.346V99.626H103.121V71.402C103.121 66.474 101.937 62.762 99.5685 60.266C97.2005 57.77 93.8085 56.522 89.3925 56.522C84.4005 56.522 80.4645 57.994 77.5845 60.938C74.7045 63.818 73.2645 67.978 73.2645 73.418V99.626H64.0485V48.746H72.8805V56.426C74.7365 53.802 77.2325 51.786 80.3685 50.378C83.5685 48.97 87.1845 48.266 91.2165 48.266ZM143.984 100.202C139.824 100.202 135.824 99.658 131.984 98.57C128.144 97.418 125.136 95.978 122.96 94.25L126.8 86.954C129.04 88.554 131.76 89.834 134.96 90.794C138.16 91.754 141.392 92.234 144.656 92.234C152.72 92.234 156.752 89.93 156.752 85.322C156.752 83.786 156.208 82.57 155.12 81.674C154.032 80.778 152.656 80.138 150.992 79.754C149.392 79.306 147.088 78.826 144.08 78.314C139.984 77.674 136.624 76.938 134 76.106C131.44 75.274 129.232 73.866 127.376 71.882C125.52 69.898 124.592 67.114 124.592 63.53C124.592 58.922 126.512 55.242 130.352 52.49C134.192 49.674 139.344 48.266 145.808 48.266C149.2 48.266 152.592 48.682 155.984 49.514C159.376 50.346 162.16 51.466 164.336 52.874L160.4 60.17C156.24 57.482 151.344 56.138 145.712 56.138C141.808 56.138 138.832 56.778 136.784 58.058C134.736 59.338 133.712 61.034 133.712 63.146C133.712 64.81 134.288 66.122 135.44 67.082C136.592 68.042 138 68.746 139.664 69.194C141.392 69.642 143.792 70.154 146.864 70.73C150.96 71.434 154.256 72.202 156.752 73.034C159.312 73.802 161.488 75.146 163.28 77.066C165.072 78.986 165.968 81.674 165.968 85.13C165.968 89.738 163.984 93.418 160.016 96.17C156.112 98.858 150.768 100.202 143.984 100.202ZM223.47 74.474C223.47 75.178 223.406 76.106 223.278 77.258H181.998C182.574 81.738 184.526 85.354 187.854 88.106C191.246 90.794 195.438 92.138 200.43 92.138C206.51 92.138 211.406 90.09 215.118 85.994L220.206 91.946C217.902 94.634 215.022 96.682 211.566 98.09C208.174 99.498 204.366 100.202 200.142 100.202C194.766 100.202 189.998 99.114 185.838 96.938C181.678 94.698 178.446 91.594 176.142 87.626C173.902 83.658 172.782 79.178 172.782 74.186C172.782 69.258 173.87 64.81 176.046 60.842C178.286 56.874 181.326 53.802 185.166 51.626C189.07 49.386 193.454 48.266 198.318 48.266C203.182 48.266 207.502 49.386 211.278 51.626C215.118 53.802 218.094 56.874 220.206 60.842C222.382 64.81 223.47 69.354 223.47 74.474ZM198.318 56.042C193.902 56.042 190.19 57.386 187.182 60.074C184.238 62.762 182.51 66.282 181.998 70.634H214.638C214.126 66.346 212.366 62.858 209.358 60.17C206.414 57.418 202.734 56.042 198.318 56.042ZM299.915 48.266C306.315 48.266 311.371 50.122 315.083 53.834C318.859 57.546 320.747 63.05 320.747 70.346V99.626H311.531V71.402C311.531 66.474 310.379 62.762 308.075 60.266C305.835 57.77 302.603 56.522 298.379 56.522C293.707 56.522 289.995 57.994 287.243 60.938C284.491 63.818 283.115 67.978 283.115 73.418V99.626H273.899V71.402C273.899 66.474 272.747 62.762 270.443 60.266C268.203 57.77 264.971 56.522 260.747 56.522C256.075 56.522 252.363 57.994 249.611 60.938C246.859 63.818 245.483 67.978 245.483 73.418V99.626H236.267V48.746H245.099V56.33C246.955 53.706 249.387 51.722 252.395 50.378C255.403 48.97 258.827 48.266 262.667 48.266C266.635 48.266 270.155 49.066 273.227 50.666C276.299 52.266 278.667 54.602 280.331 57.674C282.251 54.73 284.907 52.426 288.299 50.762C291.755 49.098 295.627 48.266 299.915 48.266ZM364.681 48.266C369.609 48.266 374.025 49.354 377.929 51.53C381.833 53.706 384.873 56.746 387.049 60.65C389.289 64.554 390.409 69.066 390.409 74.186C390.409 79.306 389.289 83.85 387.049 87.818C384.873 91.722 381.833 94.762 377.929 96.938C374.025 99.114 369.609 100.202 364.681 100.202C360.905 100.202 357.449 99.466 354.313 97.994C351.177 96.522 348.585 94.378 346.537 91.562V99.626H337.705V28.394H346.921V56.426C348.969 53.738 351.529 51.722 354.601 50.378C357.673 48.97 361.033 48.266 364.681 48.266ZM363.913 92.138C367.177 92.138 370.089 91.402 372.649 89.93C375.273 88.394 377.321 86.282 378.793 83.594C380.329 80.842 381.097 77.706 381.097 74.186C381.097 70.666 380.329 67.562 378.793 64.874C377.321 62.122 375.273 60.01 372.649 58.538C370.089 57.066 367.177 56.33 363.913 56.33C360.713 56.33 357.801 57.066 355.177 58.538C352.553 60.01 350.505 62.122 349.033 64.874C347.561 67.562 346.825 70.666 346.825 74.186C346.825 77.706 347.561 80.842 349.033 83.594C350.505 86.282 352.553 88.394 355.177 89.93C357.801 91.402 360.713 92.138 363.913 92.138ZM403.142 28.394H412.358V99.626H403.142V28.394ZM475.939 74.474C475.939 75.178 475.875 76.106 475.747 77.258H434.467C435.043 81.738 436.995 85.354 440.323 88.106C443.715 90.794 447.907 92.138 452.899 92.138C458.979 92.138 463.875 90.09 467.587 85.994L472.675 91.946C470.371 94.634 467.491 96.682 464.035 98.09C460.643 99.498 456.835 100.202 452.611 100.202C447.235 100.202 442.467 99.114 438.307 96.938C434.147 94.698 430.915 91.594 428.611 87.626C426.371 83.658 425.251 79.178 425.251 74.186C425.251 69.258 426.339 64.81 428.515 60.842C430.755 56.874 433.795 53.802 437.635 51.626C441.539 49.386 445.923 48.266 450.787 48.266C455.651 48.266 459.971 49.386 463.747 51.626C467.587 53.802 470.563 56.874 472.675 60.842C474.851 64.81 475.939 69.354 475.939 74.474ZM450.787 56.042C446.371 56.042 442.659 57.386 439.651 60.074C436.707 62.762 434.979 66.282 434.467 70.634H467.107C466.595 66.346 464.835 62.858 461.827 60.17C458.883 57.418 455.203 56.042 450.787 56.042Z" fill="white"/>
<mask id="mask0_428_3413" style="mask-type:alpha" maskUnits="userSpaceOnUse" x="512" y="0" width="113" height="124">
<path d="M547.314 17.1361L567.829 28.7936C568.288 29.0583 568.808 29.1978 569.338 29.1978C569.867 29.1978 570.387 29.0583 570.846 28.7936L590.45 17.3895C590.906 17.1239 591.284 16.7435 591.547 16.2861C591.81 15.8287 591.948 15.3104 591.948 14.7829C591.948 14.2554 591.81 13.7371 591.547 13.2797C591.284 12.8223 590.906 12.4419 590.45 12.1763L570.225 0.404195C569.766 0.139403 569.246 0 568.716 0C568.187 0 567.666 0.139403 567.208 0.404195L547.296 11.9168C546.84 12.1836 546.461 12.5656 546.199 13.0245C545.937 13.4834 545.8 14.0031 545.802 14.5317C545.804 15.0602 545.944 15.579 546.21 16.0361C546.475 16.4932 546.856 16.8725 547.314 17.1361V17.1361Z" fill="white"/>
<path d="M581.1 54.2761L559.698 42.0576C559.245 41.7986 558.732 41.6615 558.21 41.6597C557.689 41.658 557.175 41.7916 556.721 42.0475C556.266 42.3035 555.885 42.673 555.616 43.12C555.347 43.567 555.198 44.0762 555.184 44.5978L555.234 81.857C555.221 82.3671 555.078 82.8655 554.82 83.3056C554.562 83.7458 554.196 84.1132 553.757 84.3736C553.319 84.634 552.821 84.7789 552.311 84.7946C551.801 84.8103 551.295 84.6964 550.841 84.4636L542.997 80.4269C542.495 80.1701 542.076 79.7779 541.786 79.2948C541.496 78.8117 541.347 78.257 541.356 77.6936L541.041 33.043C541.05 32.5036 540.914 31.9717 540.648 31.5027C540.382 31.0336 539.994 30.6445 539.527 30.376L528.062 23.8172C527.611 23.5635 527.102 23.4302 526.584 23.4302C526.066 23.4302 525.557 23.5635 525.106 23.8172L513.557 30.201C513.085 30.4621 512.691 30.845 512.417 31.3098C512.144 31.7747 511.999 32.3044 512 32.8438L512 89.0735C512 89.5889 512.132 90.0958 512.383 90.5458C512.635 90.9957 512.997 91.3738 513.436 91.6439L566.288 123.497C566.739 123.774 567.255 123.928 567.785 123.943C568.314 123.958 568.839 123.833 569.305 123.581L581.191 117.167C581.664 116.913 582.06 116.537 582.339 116.079C582.618 115.621 582.769 115.097 582.778 114.561L582.626 56.9431C582.634 56.4026 582.497 55.8699 582.228 55.4007C581.96 54.9315 581.57 54.5431 581.1 54.2761Z" fill="white"/>
<path d="M623.041 31.0737L611.347 24.2856C610.968 24.0674 610.538 23.9526 610.101 23.9526C609.664 23.9526 609.234 24.0674 608.855 24.2856L588.551 35.8766C588.168 36.0942 587.85 36.4093 587.629 36.7898C587.408 37.1703 587.291 37.6026 587.291 38.0428C587.291 38.483 587.408 38.9153 587.629 39.2958C587.85 39.6763 588.168 39.9913 588.551 40.209L596.697 44.843L596.739 104.536C596.736 104.969 596.846 105.394 597.058 105.771C597.27 106.149 597.577 106.464 597.947 106.687C598.318 106.91 598.74 107.032 599.173 107.042C599.605 107.052 600.033 106.95 600.414 106.744L622.968 94.5741C623.364 94.3609 623.694 94.0448 623.925 93.6593C624.155 93.2737 624.277 92.833 624.278 92.3838V33.2519C624.281 32.8121 624.169 32.379 623.952 31.9965C623.735 31.6141 623.42 31.2957 623.041 31.0737V31.0737Z" fill="white"/>
</mask>
<g mask="url(#mask0_428_3413)">
<rect x="511" width="113" height="124" fill="url(#paint0_linear_428_3413)"/>
</g>
</g>
<defs>
<linearGradient id="paint0_linear_428_3413" x1="624" y1="16" x2="511" y2="92.5" gradientUnits="userSpaceOnUse">
<stop stop-color="#03ECED"/>
<stop offset="1" stop-color="#1EC1FE"/>
</linearGradient>
<clipPath id="clip0_428_3413">
<rect width="624" height="124" fill="white"/>
</clipPath>
</defs>
</svg>
